# xmcd
#
# Track frame offsets:
#	150
#	16925
#	33194
#	57283
#	82548
#	98690
#	121069
#
# Disc length: 1711 seconds
#
# Revision: 1
# Processed by: cddbd v1.5.2PL0 Copyright (c) Steve Scherf et al.
# Submitted via: audiograbber 1.83.01
#
DISCID=3d06ad07
DTITLE=South Quay - On The Rocks!
DYEAR=2007
DGENRE=Blues
TTITLE0=Don't Need No Doctor
TTITLE1=Some Kind Of Wonderful
TTITLE2=Dream Away
TTITLE3=Summertime
TTITLE4=Stay With Me Baby
TTITLE5=Whipping Post
TTITLE6=Scuttle Buttin'
EXTD=
EXTT0=
EXTT1=
EXTT2=
EXTT3=
EXTT4=
EXTT5=
EXTT6=
PLAYORDER=
